# Blender v2.78 (sub 0) OBJ File: ''
# www.blender.org
mtllib batterybank.mtl
o Plane
v -0.038000 0.000000 0.038000
v 0.038000 0.000000 0.038000
v -0.038000 0.000000 -0.137084
v 0.038000 0.000000 -0.137084
v -0.038000 0.337300 0.038000
v 0.038000 0.337300 0.038000
v -0.038000 0.337300 -0.137084
v 0.038000 0.337300 -0.137084
v -0.038000 0.310709 0.038000
v -0.038000 0.310709 -0.137084
v 0.038000 0.310709 -0.137084
v 0.038000 0.310709 0.038000
v 0.000044 0.332427 -0.119088
v -0.003599 0.332427 -0.118729
v -0.007101 0.332427 -0.117667
v -0.010329 0.332427 -0.115941
v -0.013159 0.332427 -0.113619
v -0.015481 0.332427 -0.110790
v -0.017206 0.332427 -0.107562
v -0.018269 0.332427 -0.104059
v -0.018628 0.332427 -0.100417
v -0.018269 0.332427 -0.096774
v -0.017206 0.332427 -0.093271
v -0.015481 0.332427 -0.090043
v -0.013159 0.332427 -0.087214
v -0.010329 0.332427 -0.084892
v -0.007101 0.332427 -0.083166
v -0.003599 0.332427 -0.082104
v 0.000044 0.332427 -0.081745
v 0.003687 0.332427 -0.082104
v 0.007189 0.332427 -0.083166
v 0.010417 0.332427 -0.084892
v 0.013247 0.332427 -0.087214
v 0.015569 0.332427 -0.090043
v 0.017294 0.332427 -0.093271
v 0.018357 0.332427 -0.096774
v 0.018715 0.332427 -0.100417
v 0.018357 0.332427 -0.104059
v 0.017294 0.332427 -0.107562
v 0.015569 0.332427 -0.110790
v 0.013247 0.332427 -0.113619
v 0.010417 0.332427 -0.115941
v 0.007189 0.332427 -0.117667
v 0.003687 0.332427 -0.118729
v -0.003599 0.345483 -0.118729
v 0.000044 0.345483 -0.119088
v -0.007101 0.345483 -0.117667
v -0.010329 0.345483 -0.115941
v -0.013159 0.345483 -0.113619
v -0.015481 0.345483 -0.110790
v -0.017206 0.345483 -0.107562
v -0.018269 0.345483 -0.104059
v -0.018628 0.345483 -0.100417
v -0.018269 0.345483 -0.096774
v -0.017206 0.345483 -0.093271
v -0.015481 0.345483 -0.090043
v -0.013159 0.345483 -0.087214
v -0.010329 0.345483 -0.084892
v -0.007101 0.345483 -0.083166
v -0.003599 0.345483 -0.082104
v 0.000044 0.345483 -0.081745
v 0.003687 0.345483 -0.082104
v 0.007189 0.345483 -0.083166
v 0.010417 0.345483 -0.084892
v 0.013247 0.345483 -0.087214
v 0.015569 0.345483 -0.090043
v 0.017294 0.345483 -0.093271
v 0.018357 0.345483 -0.096774
v 0.018715 0.345483 -0.100417
v 0.018357 0.345483 -0.104059
v 0.017294 0.345483 -0.107562
v 0.015569 0.345483 -0.110790
v 0.013247 0.345483 -0.113619
v 0.010417 0.345483 -0.115941
v 0.007189 0.345483 -0.117667
v 0.003687 0.345483 -0.118729
v 0.000044 0.332427 -0.027011
v -0.003599 0.332427 -0.026652
v -0.007101 0.332427 -0.025590
v -0.010329 0.332427 -0.023864
v -0.013159 0.332427 -0.021542
v -0.015481 0.332427 -0.018713
v -0.017206 0.332427 -0.015485
v -0.018269 0.332427 -0.011982
v -0.018628 0.332427 -0.008340
v -0.018269 0.332427 -0.004697
v -0.017206 0.332427 -0.001194
v -0.015481 0.332427 0.002034
v -0.013159 0.332427 0.004863
v -0.010329 0.332427 0.007185
v -0.007101 0.332427 0.008911
v -0.003599 0.332427 0.009973
v 0.000044 0.332427 0.010332
v 0.003687 0.332427 0.009973
v 0.007189 0.332427 0.008911
v 0.010417 0.332427 0.007185
v 0.013247 0.332427 0.004863
v 0.015569 0.332427 0.002034
v 0.017294 0.332427 -0.001194
v 0.018357 0.332427 -0.004697
v 0.018715 0.332427 -0.008340
v 0.018357 0.332427 -0.011982
v 0.017294 0.332427 -0.015485
v 0.015569 0.332427 -0.018713
v 0.013247 0.332427 -0.021542
v 0.010417 0.332427 -0.023864
v 0.007189 0.332427 -0.025590
v 0.003687 0.332427 -0.026652
v -0.003599 0.345483 -0.026652
v 0.000044 0.345483 -0.027011
v -0.007101 0.345483 -0.025590
v -0.010329 0.345483 -0.023864
v -0.013159 0.345483 -0.021542
v -0.015481 0.345483 -0.018713
v -0.017206 0.345483 -0.015485
v -0.018269 0.345483 -0.011982
v -0.018628 0.345483 -0.008340
v -0.018269 0.345483 -0.004697
v -0.017206 0.345483 -0.001194
v -0.015481 0.345483 0.002034
v -0.013159 0.345483 0.004863
v -0.010329 0.345483 0.007185
v -0.007101 0.345483 0.008911
v -0.003599 0.345483 0.009973
v 0.000044 0.345483 0.010332
v 0.003687 0.345483 0.009973
v 0.007189 0.345483 0.008911
v 0.010417 0.345483 0.007185
v 0.013247 0.345483 0.004863
v 0.015569 0.345483 0.002034
v 0.017294 0.345483 -0.001194
v 0.018357 0.345483 -0.004697
v 0.018715 0.345483 -0.008340
v 0.018357 0.345483 -0.011982
v 0.017294 0.345483 -0.015485
v 0.015569 0.345483 -0.018713
v 0.013247 0.345483 -0.021542
v 0.010417 0.345483 -0.023864
v 0.007189 0.345483 -0.025590
v 0.003687 0.345483 -0.026652
vn 0.0000 -1.0000 0.0000
vn 1.0000 0.0000 0.0000
vn 0.0000 0.0000 1.0000
vn 0.0000 0.0000 -1.0000
vn -1.0000 0.0000 0.0000
vn 0.0000 1.0000 0.0000
vn -0.4714 0.0000 0.8819
vn -0.0980 0.0000 -0.9952
vn 0.7730 0.0000 -0.6344
vn -0.2903 0.0000 0.9569
vn -0.2903 0.0000 -0.9569
vn 0.6344 0.0000 -0.7730
vn -0.0980 0.0000 0.9952
vn -0.4714 0.0000 -0.8819
vn 0.4714 0.0000 -0.8819
vn 0.0980 0.0000 0.9952
vn -0.6344 0.0000 -0.7730
vn 0.2903 0.0000 -0.9569
vn 0.2903 0.0000 0.9569
vn -0.7730 0.0000 -0.6344
vn 0.0980 0.0000 -0.9952
vn 0.4714 0.0000 0.8819
vn -0.8819 0.0000 -0.4714
vn 0.6344 0.0000 0.7730
vn -0.9569 0.0000 -0.2903
vn 0.7730 0.0000 0.6344
vn -0.9952 0.0000 -0.0980
vn 0.8819 0.0000 0.4714
vn -0.9952 0.0000 0.0980
vn 0.9569 0.0000 0.2903
vn -0.9569 0.0000 0.2903
vn 0.9952 0.0000 0.0980
vn -0.8819 0.0000 0.4714
vn 0.9952 0.0000 -0.0980
vn -0.7730 0.0000 0.6344
vn 0.9569 0.0000 -0.2903
vn -0.6344 0.0000 0.7730
vn 0.8819 0.0000 -0.4714
usemtl black
s off
f 1//1 3//1 4//1 2//1
f 2//2 4//2 11//2 12//2
f 1//3 2//3 12//3 9//3
f 4//4 3//4 10//4 11//4
f 3//5 1//5 9//5 10//5
usemtl top_bit
f 5//6 6//6 8//6 7//6
f 10//5 9//5 5//5 7//5
f 11//4 10//4 7//4 8//4
f 9//3 12//3 6//3 5//3
f 12//2 11//2 8//2 6//2
usemtl red
f 78//1 77//1 108//1 107//1 106//1 105//1 104//1 103//1 102//1 101//1 100//1 99//1 98//1 97//1 96//1 95//1 94//1 93//1 92//1 91//1 90//1 89//1 88//1 87//1 86//1 85//1 84//1 83//1 82//1 81//1 80//1 79//1
f 109//6 111//6 112//6 113//6 114//6 115//6 116//6 117//6 118//6 119//6 120//6 121//6 122//6 123//6 124//6 125//6 126//6 127//6 128//6 129//6 130//6 131//6 132//6 133//6 134//6 135//6 136//6 137//6 138//6 139//6 140//6 110//6
f 90//7 91//7 123//7 122//7
f 77//8 78//8 109//8 110//8
f 104//9 105//9 137//9 136//9
f 91//10 92//10 124//10 123//10
f 78//11 79//11 111//11 109//11
f 105//12 106//12 138//12 137//12
f 92//13 93//13 125//13 124//13
f 79//14 80//14 112//14 111//14
f 106//15 107//15 139//15 138//15
f 93//16 94//16 126//16 125//16
f 80//17 81//17 113//17 112//17
f 107//18 108//18 140//18 139//18
f 94//19 95//19 127//19 126//19
f 81//20 82//20 114//20 113//20
f 108//21 77//21 110//21 140//21
f 95//22 96//22 128//22 127//22
f 82//23 83//23 115//23 114//23
f 96//24 97//24 129//24 128//24
f 83//25 84//25 116//25 115//25
f 97//26 98//26 130//26 129//26
f 84//27 85//27 117//27 116//27
f 98//28 99//28 131//28 130//28
f 85//29 86//29 118//29 117//29
f 99//30 100//30 132//30 131//30
f 86//31 87//31 119//31 118//31
f 100//32 101//32 133//32 132//32
f 87//33 88//33 120//33 119//33
f 101//34 102//34 134//34 133//34
f 88//35 89//35 121//35 120//35
f 102//36 103//36 135//36 134//36
f 89//37 90//37 122//37 121//37
f 103//38 104//38 136//38 135//38
usemtl blue
f 14//1 13//1 44//1 43//1 42//1 41//1 40//1 39//1 38//1 37//1 36//1 35//1 34//1 33//1 32//1 31//1 30//1 29//1 28//1 27//1 26//1 25//1 24//1 23//1 22//1 21//1 20//1 19//1 18//1 17//1 16//1 15//1
f 45//6 47//6 48//6 49//6 50//6 51//6 52//6 53//6 54//6 55//6 56//6 57//6 58//6 59//6 60//6 61//6 62//6 63//6 64//6 65//6 66//6 67//6 68//6 69//6 70//6 71//6 72//6 73//6 74//6 75//6 76//6 46//6
f 26//7 27//7 59//7 58//7
f 13//8 14//8 45//8 46//8
f 40//9 41//9 73//9 72//9
f 27//10 28//10 60//10 59//10
f 14//11 15//11 47//11 45//11
f 41//12 42//12 74//12 73//12
f 28//13 29//13 61//13 60//13
f 15//14 16//14 48//14 47//14
f 42//15 43//15 75//15 74//15
f 29//16 30//16 62//16 61//16
f 16//17 17//17 49//17 48//17
f 43//18 44//18 76//18 75//18
f 30//19 31//19 63//19 62//19
f 17//20 18//20 50//20 49//20
f 44//21 13//21 46//21 76//21
f 31//22 32//22 64//22 63//22
f 18//23 19//23 51//23 50//23
f 32//24 33//24 65//24 64//24
f 19//25 20//25 52//25 51//25
f 33//26 34//26 66//26 65//26
f 20//27 21//27 53//27 52//27
f 34//28 35//28 67//28 66//28
f 21//29 22//29 54//29 53//29
f 35//30 36//30 68//30 67//30
f 22//31 23//31 55//31 54//31
f 36//32 37//32 69//32 68//32
f 23//33 24//33 56//33 55//33
f 37//34 38//34 70//34 69//34
f 24//35 25//35 57//35 56//35
f 38//36 39//36 71//36 70//36
f 25//37 26//37 58//37 57//37
f 39//38 40//38 72//38 71//38
