# Blender v2.78 (sub 0) OBJ File: ''
# www.blender.org
mtllib transformer2.mtl
o Cube
v -1.000000 -0.000452 0.045708
v 1.000000 -0.000452 0.045708
v -1.000000 1.999548 0.045708
v 1.000000 1.999548 0.045708
v 1.000000 1.999548 0.738254
v -1.000000 1.999548 0.738254
v 1.000000 -0.000452 0.738254
v -1.000000 -0.000452 0.738254
v -0.740849 0.258699 0.045708
v 0.740849 0.258699 0.045708
v -0.740849 1.391968 0.045708
v 0.740849 1.391968 0.045708
v -0.740849 0.258699 -0.622552
v 0.740849 0.258699 -0.622552
v -0.740849 1.391968 -0.622552
v 0.740849 1.391968 -0.622552
v 0.740849 1.391968 -0.464561
v 0.740849 0.258699 -0.464561
v -0.740849 0.258699 -0.464561
v -0.740849 1.391968 -0.464561
v -0.740849 0.011533 -0.622552
v 0.740849 0.011533 -0.622552
v -0.740849 0.011533 -0.577709
v 0.740849 0.011533 -0.577709
v -0.740849 0.825333 0.045708
v 0.740849 0.825333 0.045708
v -0.740849 0.825333 -0.622552
v 0.740849 0.825333 -0.622552
v -0.740849 0.825333 -0.464561
v 0.740849 0.825333 -0.464561
v -0.740849 0.917719 0.045708
v 0.740849 0.917719 0.045708
v -0.740849 0.917719 -0.622552
v 0.740849 0.917719 -0.622552
v -0.740849 0.917719 -0.464561
v 0.740849 0.917719 -0.464561
v -0.868810 0.817355 0.113561
v 0.868810 0.817355 0.113561
v -0.868810 0.817355 -0.670123
v 0.868810 0.817355 -0.670123
v -0.868810 0.817355 -0.484843
v 0.868810 0.817355 -0.484843
v -0.868810 0.925697 0.113561
v 0.868810 0.925697 0.113561
v -0.868810 0.925697 -0.670123
v 0.868810 0.925697 -0.670123
v -0.868810 0.925697 -0.484843
v 0.868810 0.925697 -0.484843
v 0.914466 1.899791 0.738254
v 0.021659 1.899791 0.738254
v 0.914466 0.102718 0.738254
v 0.021659 0.102718 0.738254
v -0.042555 1.899791 0.738254
v -0.042555 0.102718 0.738254
v -0.896955 1.899791 0.738254
v -0.896955 0.102718 0.738254
v 0.914466 1.899791 0.701420
v 0.021659 1.899791 0.701420
v 0.914466 0.102718 0.701420
v 0.021659 0.102718 0.701420
v -0.042555 1.899791 0.701420
v -0.042555 0.102718 0.701420
v -0.896955 1.899791 0.701420
v -0.896955 0.102718 0.701420
vn 0.0000 -1.0000 0.0000
vn 0.0000 0.0000 -1.0000
vn -1.0000 0.0000 0.0000
vn 0.0000 0.4162 -0.9093
vn -0.0622 -0.9981 0.0000
vn 0.4685 0.0000 0.8835
vn 0.0000 -0.9862 -0.1654
vn 0.0000 -0.9862 0.1654
vn 0.0622 0.9981 0.0000
vn 0.0622 -0.9981 0.0000
vn 0.4685 0.0000 -0.8835
vn 0.0000 1.0000 0.0000
vn 0.0000 0.0000 1.0000
vn 1.0000 0.0000 0.0000
usemtl Material
s off
f 5//1 6//1 3//1 4//1
f 4//2 12//2 11//2 3//2
f 8//1 1//1 2//1 7//1
f 30//3 17//3 16//3 28//3
f 1//2 9//2 10//2 2//2
f 27//2 15//2 16//2 28//2
f 29//3 27//3 13//3 19//3
f 17//1 20//1 15//1 16//1
f 13//3 21//3 23//3 19//3
f 9//1 19//1 18//1 10//1
f 12//1 11//1 20//1 17//1
f 25//3 29//3 19//3 9//3
f 26//3 12//3 17//3 30//3
f 23//1 21//1 22//1 24//1
f 14//2 22//2 21//2 13//2
f 18//3 14//3 22//3 24//3
f 19//4 18//4 24//4 23//4
f 10//3 26//3 30//3 18//3
f 11//3 20//3 29//3 25//3
f 20//3 15//3 27//3 29//3
f 13//2 27//2 28//2 14//2
f 12//2 4//2 2//2 10//2
f 18//3 30//3 28//3 14//3
f 3//2 11//2 9//2 1//2
f 30//5 42//5 38//5 26//5
f 25//6 31//6 43//6 37//6
f 34//7 33//7 45//7 46//7
f 27//8 39//8 40//8 28//8
f 35//9 33//9 45//9 47//9
f 39//3 41//3 47//3 45//3
f 42//3 38//3 44//3 48//3
f 40//3 42//3 48//3 46//3
f 39//2 45//2 46//2 40//2
f 41//3 37//3 43//3 47//3
f 32//10 36//10 48//10 44//10
f 26//11 32//11 44//11 38//11
f 36//10 34//10 46//10 48//10
f 29//10 25//10 37//10 41//10
f 31//9 35//9 47//9 43//9
f 28//5 40//5 42//5 30//5
f 27//10 29//10 41//10 39//10
f 2//3 7//3 5//3 4//3
f 6//3 3//3 1//3 8//3
f 52//12 51//12 59//12 60//12
f 52//13 50//13 53//13 54//13
f 51//3 49//3 57//3 59//3
f 8//13 56//13 55//13 6//13
f 8//13 7//13 51//13 56//13
f 5//13 49//13 51//13 7//13
f 6//13 55//13 49//13 5//13
f 57//13 58//13 60//13 59//13
f 62//13 61//13 63//13 64//13
f 53//1 55//1 63//1 61//1
f 54//3 53//3 61//3 62//3
f 50//14 52//14 60//14 58//14
f 49//1 50//1 58//1 57//1
f 56//12 54//12 62//12 64//12
f 55//14 56//14 64//14 63//14
